<svg width="24" height="24" viewBox="0 0 24 24" fill="none" xmlns="http://www.w3.org/2000/svg">
<path d="M15.4402 16.5L11.25 12.3075V5.25H12.7485V11.6865L16.5 15.4403L15.4402 16.5Z" fill="white" stroke="white" stroke-width="0.75"/>
<path d="M12 1.5C13.3992 1.49959 14.7841 1.78051 16.0726 2.32607C17.361 2.87163 18.5266 3.67068 19.5 4.67573V1.5H21V7.5H15V6H18.6913C17.2861 4.43968 15.3789 3.42069 13.3007 3.11995C11.2226 2.8192 9.10475 3.25569 7.31487 4.35363C5.525 5.45157 4.17612 7.14163 3.5024 9.13041C2.82869 11.1192 2.8727 13.2811 3.62677 15.2408C4.38085 17.2005 5.79738 18.8343 7.63045 19.8585C9.46351 20.8827 11.5974 21.2327 13.6616 20.8476C15.7257 20.4626 17.5899 19.3668 18.9304 17.7506C20.271 16.1344 21.0032 14.0998 21 12H22.5C22.5 14.0767 21.8842 16.1068 20.7304 17.8335C19.5767 19.5602 17.9368 20.906 16.0182 21.7007C14.0995 22.4955 11.9883 22.7034 9.95155 22.2982C7.91475 21.8931 6.04383 20.8931 4.57538 19.4246C3.10692 17.9562 2.1069 16.0852 1.70175 14.0484C1.29661 12.0116 1.50454 9.90045 2.29926 7.98182C3.09398 6.0632 4.43979 4.42332 6.16651 3.26957C7.89323 2.11581 9.92329 1.5 12 1.5Z" fill="white" stroke="white" stroke-width="0.75"/>
</svg>
